<?xml version="1.0" encoding="utf-8"?>
<!-- Generator: Adobe Illustrator 16.0.0, SVG Export Plug-In . SVG Version: 6.00 Build 0)  -->
<!DOCTYPE svg PUBLIC "-//W3C//DTD SVG 1.1//EN" "http://www.w3.org/Graphics/SVG/1.1/DTD/svg11.dtd">
<svg version="1.1" xmlns="http://www.w3.org/2000/svg" xmlns:xlink="http://www.w3.org/1999/xlink" x="0px" y="0px" width="1366px"
	 height="768px" viewBox="0 0 1366 768" enable-background="new 0 0 1366 768" xml:space="preserve">
<g id="图层_1">
	<rect fill="#EFF7FF" width="1366" height="768"/>
</g>
<g id="图层_2">
	<g>
		<circle fill="#DEEAFF" cx="113.228" cy="141.532" r="54.793"/>
		<circle fill="#DEEAFF" cx="240.39" cy="103.969" r="23.434"/>
		<path fill="#DEEAFF" d="M1365.926,0H899.472c-26.953,18.384-40.156,35.182-40.156,35.182s-85.465,73.058-39.976,251.568
			c12.406,33.771,29.637,56.517,51.003,71.68c63.409,48.245,137.156,31.015,137.156,31.015s142.67-24.813,282.583-106.142
			c35.597-20.691,59.723-39.775,75.918-56.733V10.455L1365.926,0z"/>
		<path fill="#DEEAFF" d="M604.302,234.098c-37.908-25.434-47.557-29.703-84.085-21.434c-22.055,6.893-71.198,33.413-115.79,59.963
			c-59.963,36.529-156.926,75.971-169.55,80.641s-68.293,7.918-130.953,11.027C50.616,366.94,24.658,367.582,0,372.382V768h177.313
			c2.387-1.032,4.583-2.119,6.561-3.265c47.557-27.569,48.246-24.813,83.397-43.422s86.153-27.569,159.211-37.219
			s133.021-38.597,176.442-62.03c43.42-23.434,62.72-53.07,76.504-67.544c13.785-14.474,26.19-45.489,27.569-102.006
			c5.376-58.532-30.65-125.386-36.628-135.861C673.94,322.252,641.199,258.854,604.302,234.098z"/>
	</g>
</g>
</svg>
