<?xml version="1.0" encoding="utf-8"?>
<!-- Generator: Adobe Illustrator 16.0.0, SVG Export Plug-In . SVG Version: 6.00 Build 0)  -->
<!DOCTYPE svg PUBLIC "-//W3C//DTD SVG 1.1//EN" "http://www.w3.org/Graphics/SVG/1.1/DTD/svg11.dtd">
<svg version="1.1" xmlns="http://www.w3.org/2000/svg" xmlns:xlink="http://www.w3.org/1999/xlink" x="0px" y="0px" width="800px"
	 height="350px" viewBox="0 0 800 350" enable-background="new 0 0 800 350" xml:space="preserve">
<g id="图层_1">
	<linearGradient id="SVGID_1_" gradientUnits="userSpaceOnUse" x1="4.4141" y1="-9.4648" x2="845.6454" y2="382.8078">
		<stop  offset="0" style="stop-color:#0F4DBC"/>
		<stop  offset="0.4194" style="stop-color:#00A9E0"/>
	</linearGradient>
	<rect fill="url(#SVGID_1_)" width="800" height="350"/>
	<rect x="442" fill="#FFFFFF" width="358" height="350"/>
</g>
<g id="图层_3">
	<circle opacity="0.15" fill="#FFFFFF" cx="48.75" cy="42.25" r="16.25"/>
	<circle opacity="0.15" fill="#FFFFFF" cx="239.5" cy="58.5" r="5.75"/>
	<path opacity="0.15" fill="#FFFFFF" d="M442,132.012c-1.078,1.254-1.951,2.44-2.5,3.488c-3.422,6.546-6.393,16.279-17.5,45
		C410.5,208,405.5,227,385.5,268s-73.686,39.803-89.5,42.012c-21.406,2.673-114.869,0.673-134,1.488
		c-18.48,0.788-152.887-4.612-162-4.979V350h442V132.012z"/>
	<path opacity="0.15" fill="#FFFFFF" d="M423.824,44.892h-14.64c-1.92,0-3.477-1.557-3.477-3.477s1.557-3.477,3.477-3.477h7.347
		c1.92,0,3.477-1.557,3.477-3.477s-1.557-3.477-3.477-3.477h-32.907c-1.92,0-3.477,1.557-3.477,3.477s1.557,3.477,3.477,3.477
		h12.079c1.92,0,3.477,1.557,3.477,3.477s-1.557,3.477-3.477,3.477h-4.786c-1.92,0-3.477,1.557-3.477,3.477s1.557,3.477,3.477,3.477
		h32.907c1.92,0,3.477-1.557,3.477-3.477S425.744,44.892,423.824,44.892z"/>
	<path opacity="0.15" fill="#FFFFFF" d="M358.859,128.685h-14.64c-1.92,0-3.477-1.557-3.477-3.477s1.557-3.477,3.477-3.477h7.347
		c1.92,0,3.477-1.557,3.477-3.477s-1.557-3.477-3.477-3.477h-32.907c-1.92,0-3.477,1.557-3.477,3.477s1.557,3.477,3.477,3.477
		h12.079c1.92,0,3.477,1.557,3.477,3.477s-1.557,3.477-3.477,3.477h-4.786c-1.92,0-3.477,1.557-3.477,3.477s1.557,3.477,3.477,3.477
		h32.907c1.92,0,3.477-1.557,3.477-3.477S360.779,128.685,358.859,128.685z"/>
	<path opacity="0.15" fill="#FFFFFF" d="M108.677,273.186h-14.64c-1.92,0-3.477-1.557-3.477-3.478s1.557-3.478,3.477-3.478h7.347
		c1.92,0,3.477-1.557,3.477-3.477s-1.557-3.477-3.477-3.477H68.477c-1.92,0-3.477,1.557-3.477,3.477s1.557,3.477,3.477,3.477h12.079
		c1.92,0,3.477,1.557,3.477,3.478s-1.557,3.478-3.477,3.478H75.77c-1.92,0-3.477,1.557-3.477,3.477s1.557,3.477,3.477,3.477h32.907
		c1.92,0,3.477-1.557,3.477-3.477S110.597,273.186,108.677,273.186z"/>
	<path opacity="0.15" fill="#FFFFFF" d="M159.09,158.513h-20.248c-2.655,0-4.809-2.153-4.809-4.809c0-2.656,2.153-4.809,4.809-4.809
		h10.161c2.655,0,4.809-2.153,4.809-4.809c0-2.656-2.153-4.809-4.809-4.809h-45.512c-2.656,0-4.809,2.153-4.809,4.809
		c0,2.656,2.153,4.809,4.809,4.809h16.705c2.656,0,4.809,2.153,4.809,4.809c0,2.656-2.153,4.809-4.809,4.809h-6.619
		c-2.656,0-4.809,2.153-4.809,4.809c0,2.656,2.153,4.809,4.809,4.809h45.513c2.655,0,4.808-2.153,4.808-4.809
		C163.898,160.666,161.746,158.513,159.09,158.513z"/>
</g>
</svg>
